<svg id="Capa_1" enable-background="new 0 0 512 512" height="512" viewBox="0 0 512 512" width="512" xmlns="http://www.w3.org/2000/svg"><g><g><path d="m504.5 76.412v232.281c0 21.851-17.718 39.581-39.581 39.581h-217.528c-21.863 0-39.581-17.729-39.581-39.581v-232.281c0-20.943 16.977-37.908 37.908-37.908h220.874c20.931 0 37.908 16.965 37.908 37.908z" fill="#6cf5c2"/><path d="m466.592 38.504h-26.86c20.932 0 37.908 16.965 37.908 37.908v232.281c0 21.851-17.718 39.581-39.581 39.581h26.86c21.863 0 39.581-17.729 39.581-39.581v-232.281c0-20.943-16.977-37.908-37.908-37.908z" fill="#00f2a6"/><path d="m434.425 194.226v232.281c0 21.851-17.718 39.581-39.581 39.581h-347.763c-21.863 0-39.581-17.729-39.581-39.581v-232.281c0-20.943 16.977-37.908 37.908-37.908h351.109c20.931 0 37.908 16.965 37.908 37.908z" fill="#edf5fa"/><path d="m396.517 156.318h-27.5c20.932 0 37.908 16.965 37.908 37.908v232.281c0 21.851-17.718 39.581-39.581 39.581h27.5c21.863 0 39.581-17.729 39.581-39.581v-232.281c0-20.943-16.977-37.908-37.908-37.908z" fill="#d0e7f2"/><path d="m434.425 194.226v17.407h-426.925v-17.407c0-20.943 16.977-37.908 37.908-37.908h351.109c20.931 0 37.908 16.965 37.908 37.908z" fill="#30dde5"/><path d="m396.517 156.318h-27.5c20.932 0 37.908 16.965 37.908 37.908v17.407h27.5v-17.407c0-20.943-16.977-37.908-37.908-37.908z" fill="#02c7dd"/><path d="m504.5 76.412v17.407h-296.69v-17.407c0-20.943 16.977-37.908 37.908-37.908h220.874c20.931 0 37.908 16.965 37.908 37.908z" fill="#07b2cd"/><path d="m466.592 38.504h-26.895c20.931 0 37.908 16.965 37.908 37.908v17.407h26.895v-17.407c0-20.943-16.977-37.908-37.908-37.908z" fill="#0199b1"/><circle cx="138.791" cy="334.133" fill="#fe5ca7" r="88.398"/><path d="m138.791 245.735c-4.227 0-8.383.303-12.452.877 42.924 6.052 75.947 42.927 75.947 87.521s-33.023 81.469-75.947 87.521c4.069.574 8.225.877 12.452.877 48.821 0 88.398-39.577 88.398-88.398s-39.577-88.398-88.398-88.398z" fill="#fe3d97"/><path d="m435.294 446.385-66.388-66.388h27.627c8.836 0 16-7.163 16-16s-7.164-16-16-16h-66.254c-7.764-.03-16.192 6.516-16 16v66.254c0 8.837 7.164 16 16 16s16-7.163 16-16v-27.627l66.388 66.388c5.525 5.358 15.597 6.793 22.627 0 6.248-6.248 6.248-16.379 0-22.627z" fill="#017297"/><g fill="#025f80"><path d="m391.54 364.774c-.4 8.6-7.82 15.22-16.43 15.22h21.42c8.84 0 16-7.16 16-16 0-8.83-7.16-16-16-16h-20.97c9.09 0 16.41 7.59 15.98 16.78z"/><path d="m435.29 446.384-66.38-66.39h-14.998c-2.208 0-3.313 2.669-1.752 4.23l62.16 62.16c4.883 4.883 5.951 12.135 3.204 18.054-.008.017-.015.033-.024.05-1.48 3.081-5.627 3.694-8.054 1.288-1.105-1.096-2.003-1.99-2.003-1.99 6.32 8.102 17.691 14.219 27.848 5.228 6.249-6.25 6.249-16.38-.001-22.63z"/></g><path d="m363.73 321.291h-78.675c-7.399 0-13.397-5.998-13.397-13.397v-10.873c0-7.399 5.998-13.397 13.397-13.397h78.675c7.399 0 13.397 5.998 13.397 13.397v10.873c.001 7.399-5.997 13.397-13.397 13.397z" fill="#00f2a6"/><path d="m363.73 283.623h-27.562c7.399 0 13.397 5.998 13.397 13.397v10.873c0 7.399-5.998 13.397-13.397 13.397h27.562c7.399 0 13.397-5.998 13.397-13.397v-10.873c.001-7.399-5.997-13.397-13.397-13.397z" fill="#05e39c"/></g><g><path d="m93.617 177.073h-35.718c-4.143 0-7.5 3.358-7.5 7.5s3.357 7.5 7.5 7.5h35.718c4.143 0 7.5-3.358 7.5-7.5s-3.357-7.5-7.5-7.5z"/><path d="m466.592 31.004h-.002-220.87-.002c-25.038 0-45.408 20.37-45.408 45.408v.002 45.072c0 4.142 3.357 7.5 7.5 7.5s7.5-3.358 7.5-7.5v-20.167h281.69v207.375c0 17.689-14.391 32.08-32.08 32.08h-23l.005-146.548c0-11.911-4.616-22.759-12.145-30.866-8.297-8.938-20.134-14.545-33.26-14.545h-351.11c-25.039 0-45.41 20.371-45.41 45.41v.001 232.278c0 25.96 21.12 47.08 47.08 47.08h319.38c4.143 0 7.5-3.358 7.5-7.5s-3.357-7.5-7.5-7.5h-319.38c-17.689 0-32.08-14.391-32.08-32.08v-207.371h411.92v207.371c0 .294-.014.585-.022.878l-39.885-39.885h9.521c12.958 0 23.5-10.542 23.5-23.5s-10.542-23.5-23.5-23.5h-66.225c-.028 0-.057 0-.085 0-6.19 0-12.327 2.632-16.851 7.23-4.355 4.428-6.695 10.228-6.594 16.339v66.185c0 12.958 10.542 23.5 23.5 23.5s23.5-10.542 23.5-23.5v-9.521l53.584 53.584c8.307 8.113 23.254 9.668 33.234 0 4.438-4.438 6.883-10.339 6.883-16.617s-2.445-12.178-6.883-16.617l-.75-.75c1.372-4.456 2.073-9.086 2.073-13.827v-70.73h23c25.96 0 47.08-21.12 47.08-47.08v-232.279-.002c0-25.038-20.37-45.408-45.408-45.408zm-36.557 432.66c-4.146 3.953-9.652 2.349-12.112-.002l-66.34-66.34c-2.146-2.146-5.372-2.788-8.174-1.626-2.803 1.161-4.63 3.896-4.63 6.929v27.627c0 4.687-3.813 8.5-8.5 8.5s-8.5-3.813-8.5-8.5v-66.254c0-.051-.001-.102-.002-.152-.054-2.65 1.215-4.507 2.289-5.598 1.67-1.698 4.027-2.75 6.188-2.75h.025 66.254c4.687 0 8.5 3.813 8.5 8.5s-3.813 8.5-8.5 8.5h-27.627c-3.033 0-5.769 1.827-6.929 4.63-1.161 2.803-.52 6.028 1.625 8.173l62.109 62.109c4.465 4.073 9.932 9.265 4.324 16.254zm-415.035-259.531v-9.907c0-.328.014-.652.025-.977.006-.195.005-.392.015-.586.816-16.044 14.125-28.845 30.369-28.845h351.108c8.383 0 15.984 3.41 21.49 8.915 5.504 5.506 8.913 13.108 8.913 21.492v9.909h-411.92zm200.31-117.814v-9.905c0-16.768 13.642-30.41 30.41-30.41h220.87c16.769 0 30.41 13.642 30.41 30.41v9.905z"/><path d="m293.927 59.26h-35.718c-4.143 0-7.5 3.358-7.5 7.5s3.357 7.5 7.5 7.5h35.718c4.143 0 7.5-3.358 7.5-7.5s-3.358-7.5-7.5-7.5z"/><path d="m208.17 267.993c-17.256-18.136-42.523-29.841-69.379-29.759-26.723 0-50.923 10.991-68.33 28.685-50.905 52.503-27.024 135.221 36.373 157.63 32.681 12.476 75.052 2.784 99.029-21.947 17.777-17.417 28.827-41.675 28.827-68.469-.234-25.36-9.068-47.179-26.52-66.14zm-123.454 126.249c-1.172-20.393.658-38.657 5.462-54.724 6.097 8.75 13.059 16.442 20.592 23.194-7.295 11.98-13.781 24.347-19.382 36.916-2.317-1.681-4.549-3.473-6.672-5.386zm19.655 13.081c5.236-11.938 11.332-23.693 18.182-35.102 7.931 5.775 16.257 10.707 24.693 14.909-10.937 9.206-23.586 17.023-38.125 22.241-1.607-.636-3.194-1.313-4.75-2.048zm21.64-51.144c-10.896-8.712-22.017-21.358-29.073-34.014 7.411-15.104 18.076-27.768 31.989-37.891 20.615-14.999 42.356-19.62 49.249-20.769 4.393 2.459 8.538 5.309 12.378 8.515-6.286 4.922-16.031 13.073-27.445 24.424-2.937 2.921-2.949 7.67-.028 10.607 2.334 2.166 6.71 3.421 10.606.029 11.781-11.717 21.771-19.9 27.534-24.34 2.229 2.703 4.271 5.562 6.139 8.541-3.467 11.373-17.655 52.853-48.501 84.955-12.379-5.651-23.331-12.347-32.848-20.057zm27.473-101.583c-9.797 3.521-21.385 8.92-32.817 17.14-13.672 9.83-23.913 21.35-31.501 33.705-4.962-13.524-6.075-24.655-6.313-29.666 14.541-13.944 34.249-22.54 55.938-22.54 5.019 0 9.924.482 14.693 1.361zm-83.682 37.339c1.702 8.595 4.826 19.354 10.531 30.932-7.21 17.56-10.173 35.94-10.807 53.017-7.379-12.196-11.633-26.485-11.633-41.751 0-15.453 4.361-29.904 11.909-42.198zm63.532 122.892c10.18-5.612 19.86-12.632 28.944-20.973 7.314 2.929 14.575 5.382 21.593 7.419-12.891 8.683-28.403 13.759-45.08 13.759-1.836-.001-3.651-.084-5.457-.205zm64.4-25.369c-8.442-2.063-16.441-4.46-24-7.185 9.17-10.159 17.606-21.787 25.177-34.791 7.934-13.627 13.613-26.449 17.434-36.327 2.164 7.289 3.344 14.997 3.344 22.979 0 21.384-8.356 40.844-21.955 55.324z"/><path d="m142.477 319.367c-4.869 0-8.816 3.947-8.816 8.816s3.947 8.816 8.816 8.816 8.816-3.947 8.816-8.816-3.947-8.816-8.816-8.816z"/><path d="m389.51 177.606c-4.075 0-7.379 3.304-7.379 7.379s3.303 7.379 7.379 7.379c4.075 0 7.379-3.304 7.379-7.379-.001-4.075-3.304-7.379-7.379-7.379z"/><path d="m366.25 177.606c-4.075 0-7.379 3.304-7.379 7.379s3.304 7.379 7.379 7.379 7.379-3.304 7.379-7.379-3.304-7.379-7.379-7.379z"/><circle cx="463.934" cy="66.76" r="7.379"/><path d="m384.628 307.893v-10.873c0-11.523-9.375-20.897-20.897-20.897h-78.675c-11.522 0-20.897 9.375-20.897 20.897v10.873c0 11.523 9.375 20.897 20.897 20.897h78.675c11.522.001 20.897-9.374 20.897-20.897zm-105.47 0v-10.873c0-3.252 2.646-5.897 5.897-5.897h78.675c3.252 0 5.897 2.646 5.897 5.897v10.873c0 3.252-2.646 5.897-5.897 5.897h-78.675c-3.251.001-5.897-2.645-5.897-5.897z"/></g></g></svg>