<svg xmlns="http://www.w3.org/2000/svg" version="1.1" xmlns:xlink="http://www.w3.org/1999/xlink" xmlns:svgjs="http://svgjs.com/svgjs" width="1440" height="560" preserveAspectRatio="none" viewBox="0 0 1440 560"><g mask="url(&quot;#SvgjsMask1060&quot;)" fill="none"><rect width="1440" height="560" x="0" y="0" fill="rgba(0, 0, 0, 1)"></rect><path d="M368 197L-487 196" stroke-width="10" stroke="url(#SvgjsLinearGradient1061)" stroke-linecap="round" class="Right"></path><path d="M661 112L-226 111" stroke-width="6" stroke="url(#SvgjsLinearGradient1062)" stroke-linecap="round" class="Left"></path><path d="M852 268L1743 267" stroke-width="8" stroke="url(#SvgjsLinearGradient1061)" stroke-linecap="round" class="Right"></path><path d="M900 88L385 87" stroke-width="6" stroke="url(#SvgjsLinearGradient1061)" stroke-linecap="round" class="Right"></path><path d="M518 156L1 155" stroke-width="6" stroke="url(#SvgjsLinearGradient1061)" stroke-linecap="round" class="Right"></path><path d="M1297 497L1841 496" stroke-width="10" stroke="url(#SvgjsLinearGradient1062)" stroke-linecap="round" class="Left"></path><path d="M873 554L-13 553" stroke-width="8" stroke="url(#SvgjsLinearGradient1062)" stroke-linecap="round" class="Left"></path><path d="M780 522L47 521" stroke-width="8" stroke="url(#SvgjsLinearGradient1062)" stroke-linecap="round" class="Left"></path><path d="M1385 205L628 204" stroke-width="8" stroke="url(#SvgjsLinearGradient1062)" stroke-linecap="round" class="Left"></path><path d="M822 10L1711 9" stroke-width="8" stroke="url(#SvgjsLinearGradient1061)" stroke-linecap="round" class="Right"></path><path d="M1313 86L2330 85" stroke-width="6" stroke="url(#SvgjsLinearGradient1061)" stroke-linecap="round" class="Right"></path><path d="M940 61L1776 60" stroke-width="6" stroke="url(#SvgjsLinearGradient1062)" stroke-linecap="round" class="Left"></path><path d="M1031 9L1919 8" stroke-width="10" stroke="url(#SvgjsLinearGradient1062)" stroke-linecap="round" class="Left"></path><path d="M1213 49L2092 48" stroke-width="8" stroke="url(#SvgjsLinearGradient1061)" stroke-linecap="round" class="Right"></path></g><defs><mask id="SvgjsMask1060"><rect width="1440" height="560" fill="#ffffff"></rect></mask><linearGradient x1="0%" y1="0%" x2="100%" y2="0%" id="SvgjsLinearGradient1061"><stop stop-color="rgba(52, 52, 52, 0)" offset="0"></stop><stop stop-color="rgba(52, 52, 52, 1)" offset="1"></stop></linearGradient><linearGradient x1="100%" y1="0%" x2="0%" y2="0%" id="SvgjsLinearGradient1062"><stop stop-color="rgba(52, 52, 52, 0)" offset="0"></stop><stop stop-color="rgba(52, 52, 52, 1)" offset="1"></stop></linearGradient></defs></svg>