<svg id="Capa_1" enable-background="new 0 0 512 512" height="512" viewBox="0 0 512 512" width="512" xmlns="http://www.w3.org/2000/svg"><g><path d="m189.72 322.28-10.606-10.605-39.14 39.14 10.605 10.606 10.606 10.605 39.14-39.14z" fill="#e1e6f0"/><path d="m147.776 339.654h55.353v14.998h-55.353z" fill="#cfd7e6" transform="matrix(.707 -.707 .707 .707 -194.086 225.742)"/><path d="m454.82 57.18c-35.31-35.31-84.06-57.18-137.82-57.18-107.52 0-195 87.48-195 195 0 53.76 21.87 102.51 57.18 137.82s84.06 57.18 137.82 57.18c107.52 0 195-87.48 195-195 0-53.76-21.87-102.51-57.18-137.82z" fill="#665151"/><path d="m512 195c0-53.76-21.87-102.51-57.18-137.82l-275.64 275.64c35.31 35.31 84.06 57.18 137.82 57.18 107.52 0 195-87.48 195-195z" fill="#4d3535"/><path d="m433.618 78.382c-29.877-29.877-71.127-48.382-116.618-48.382-90.981 0-165 74.019-165 165 0 45.491 18.505 86.741 48.382 116.618s71.127 48.382 116.618 48.382c90.981 0 165-74.019 165-165 0-45.491-18.505-86.741-48.382-116.618z" fill="#f3f5f9"/><path d="m482 195c0-45.491-18.505-86.741-48.382-116.618l-233.236 233.236c29.877 29.877 71.127 48.382 116.618 48.382 90.981 0 165-74.019 165-165z" fill="#e1e6f0"/><path d="m237.605 165.747-21.21-21.211 55.795-55.796 60 30 64.205-64.204 21.21 21.211-79.497 79.497-60-30z" fill="#f24030"/><path d="m362 200.748-30 43.199 30 41.053h34.105l25.895-15v-141.211z" fill="#f24030"/><path d="m161.185 350.815-31.817-31.816-129.368 129.368 31.816 31.817 31.817 31.816 129.368-129.368z" fill="#cfd7e6"/><path d="m20.932 408.91h182.954v44.995h-182.954z" fill="#a3b1cc" transform="matrix(.707 -.707 .707 .707 -272.128 205.841)"/><path d="m325.751 186.249-23.751-9.501-26.151 59.403-3.849 8.743 30 40.106h60v-84.252z" fill="#6cf"/><path d="m302 285h60v-84.252l-36.249-14.499-49.902 49.902-3.849 8.743z" fill="#59abff"/><path d="m242 224.775-15 22.487v37.738h75v-75-33.252z" fill="#ffdf40"/><path d="m302 210-75 75h75z" fill="#ffbe40"/><path d="m242 270v-45.225l-30 24.014v51.211h210v-30z" fill="#665151"/><path d="m422 270h-180l-30 30h210z" fill="#4d3535"/></g></svg>